# xmcd
#
# Track frame offsets:
#	187
#	21775
#	42307
#	64555
#	84230
#	106225
#	122037
#	123882
#	152197
#	168640
#	200727
#	220120
#
# Disc length: 3333 seconds
#
# Revision: 1
# Processed by: cddbd v1.5.1PL0 Copyright (c) Steve Scherf et al.
# Submitted via: CDex 1.50Beta5
#
DISCID=9e0d030c
DTITLE=泉谷しげる - HOWLING LIVE
DYEAR=1988
DGENRE=Pop
TTITLE0=長い友との始まりに
TTITLE1=のけものじみて
TTITLE2=メディア
TTITLE3=TATTOO
TTITLE4=LOSER
TTITLE5=野良犬
TTITLE6=黒いカバンPARTII
TTITLE7=春のからっ風
TTITLE8=褐色のセールスマン
TTITLE9=国旗はためく下に
TTITLE10=つなひき
TTITLE11=野性のバラッド
EXTD=
EXTT0=
EXTT1=
EXTT2=
EXTT3=
EXTT4=
EXTT5=
EXTT6=
EXTT7=
EXTT8=
EXTT9=
EXTT10=
EXTT11=
PLAYORDER=
